<mxfile host="Electron" modified="2023-06-17T21:57:20.984Z" agent="Mozilla/5.0 (Windows NT 10.0; Win64; x64) AppleWebKit/537.36 (KHTML, like Gecko) draw.io/21.2.8 Chrome/112.0.5615.165 Electron/24.2.0 Safari/537.36" etag="Vt13M7Du8-zON409_I7l" version="21.2.8" type="device">
  <diagram name="Page-1" id="CEbfPjuWwPocWXz_kCCN">
    <mxGraphModel dx="2769" dy="3613" grid="0" gridSize="10" guides="1" tooltips="1" connect="1" arrows="1" fold="1" page="0" pageScale="1" pageWidth="1169" pageHeight="1654" math="0" shadow="0">
      <root>
        <mxCell id="0" />
        <mxCell id="1" parent="0" />
        <mxCell id="tgJbi9paGbjR8tI-g3bn-1" value="USER" style="rounded=0;whiteSpace=wrap;html=1;" vertex="1" parent="1">
          <mxGeometry x="-370" y="-1480" width="120" height="60" as="geometry" />
        </mxCell>
        <mxCell id="tgJbi9paGbjR8tI-g3bn-2" value="DOCTOR" style="rounded=0;whiteSpace=wrap;html=1;" vertex="1" parent="1">
          <mxGeometry x="-554" y="-1237.1299999999999" width="120" height="60" as="geometry" />
        </mxCell>
        <mxCell id="tgJbi9paGbjR8tI-g3bn-3" value="BABY" style="rounded=0;whiteSpace=wrap;html=1;" vertex="1" parent="1">
          <mxGeometry x="-370" y="-1900" width="120" height="60" as="geometry" />
        </mxCell>
        <mxCell id="tgJbi9paGbjR8tI-g3bn-4" value="MIDWIFE" style="rounded=0;whiteSpace=wrap;html=1;" vertex="1" parent="1">
          <mxGeometry x="-371" y="-1237.13" width="120" height="60" as="geometry" />
        </mxCell>
        <mxCell id="tgJbi9paGbjR8tI-g3bn-5" value="GUARDIAN" style="rounded=0;whiteSpace=wrap;html=1;" vertex="1" parent="1">
          <mxGeometry x="-200" y="-1237.1299999999999" width="120" height="60" as="geometry" />
        </mxCell>
        <mxCell id="tgJbi9paGbjR8tI-g3bn-6" value="d" style="ellipse;whiteSpace=wrap;html=1;aspect=fixed;" vertex="1" parent="1">
          <mxGeometry x="-330" y="-1360" width="40" height="40" as="geometry" />
        </mxCell>
        <mxCell id="tgJbi9paGbjR8tI-g3bn-7" value="UPDATE" style="shape=rhombus;perimeter=rhombusPerimeter;whiteSpace=wrap;html=1;align=center;" vertex="1" parent="1">
          <mxGeometry x="-370" y="-1670" width="120" height="60" as="geometry" />
        </mxCell>
        <mxCell id="tgJbi9paGbjR8tI-g3bn-8" value="" style="endArrow=none;html=1;rounded=0;entryX=0.5;entryY=0;entryDx=0;entryDy=0;exitX=0.5;exitY=1;exitDx=0;exitDy=0;" edge="1" parent="1" source="tgJbi9paGbjR8tI-g3bn-1" target="tgJbi9paGbjR8tI-g3bn-6">
          <mxGeometry relative="1" as="geometry">
            <mxPoint x="-370" y="-1340" as="sourcePoint" />
            <mxPoint x="-210" y="-1340" as="targetPoint" />
          </mxGeometry>
        </mxCell>
        <mxCell id="tgJbi9paGbjR8tI-g3bn-9" value="" style="endArrow=none;html=1;rounded=0;exitX=0.5;exitY=1;exitDx=0;exitDy=0;entryX=0.5;entryY=0;entryDx=0;entryDy=0;" edge="1" parent="1" source="tgJbi9paGbjR8tI-g3bn-6" target="tgJbi9paGbjR8tI-g3bn-4">
          <mxGeometry relative="1" as="geometry">
            <mxPoint x="-320" y="-1250" as="sourcePoint" />
            <mxPoint x="-160" y="-1250" as="targetPoint" />
          </mxGeometry>
        </mxCell>
        <mxCell id="tgJbi9paGbjR8tI-g3bn-10" value="" style="endArrow=none;html=1;rounded=0;entryX=0.5;entryY=0;entryDx=0;entryDy=0;exitX=0.5;exitY=1;exitDx=0;exitDy=0;" edge="1" parent="1" source="tgJbi9paGbjR8tI-g3bn-6" target="tgJbi9paGbjR8tI-g3bn-5">
          <mxGeometry relative="1" as="geometry">
            <mxPoint x="-230" y="-1330" as="sourcePoint" />
            <mxPoint x="-70" y="-1330" as="targetPoint" />
            <Array as="points" />
          </mxGeometry>
        </mxCell>
        <mxCell id="tgJbi9paGbjR8tI-g3bn-11" value="" style="endArrow=none;html=1;rounded=0;exitX=0.5;exitY=1;exitDx=0;exitDy=0;entryX=0.5;entryY=0;entryDx=0;entryDy=0;" edge="1" parent="1" source="tgJbi9paGbjR8tI-g3bn-6" target="tgJbi9paGbjR8tI-g3bn-2">
          <mxGeometry relative="1" as="geometry">
            <mxPoint x="-80" y="-1250" as="sourcePoint" />
            <mxPoint x="80" y="-1250" as="targetPoint" />
          </mxGeometry>
        </mxCell>
        <mxCell id="tgJbi9paGbjR8tI-g3bn-12" value="REGISTER" style="shape=rhombus;perimeter=rhombusPerimeter;whiteSpace=wrap;html=1;align=center;" vertex="1" parent="1">
          <mxGeometry x="-160" y="-1670" width="120" height="60" as="geometry" />
        </mxCell>
        <mxCell id="tgJbi9paGbjR8tI-g3bn-13" value="" style="endArrow=none;html=1;rounded=0;entryX=0.5;entryY=1;entryDx=0;entryDy=0;exitX=0.5;exitY=0;exitDx=0;exitDy=0;" edge="1" parent="1" source="tgJbi9paGbjR8tI-g3bn-1" target="tgJbi9paGbjR8tI-g3bn-12">
          <mxGeometry relative="1" as="geometry">
            <mxPoint x="-247" y="-1330" as="sourcePoint" />
            <mxPoint x="-87" y="-1330" as="targetPoint" />
            <Array as="points" />
          </mxGeometry>
        </mxCell>
        <mxCell id="tgJbi9paGbjR8tI-g3bn-14" value="1" style="resizable=0;html=1;whiteSpace=wrap;align=right;verticalAlign=bottom;" connectable="0" vertex="1" parent="tgJbi9paGbjR8tI-g3bn-13">
          <mxGeometry x="1" relative="1" as="geometry">
            <mxPoint x="-111" y="60" as="offset" />
          </mxGeometry>
        </mxCell>
        <mxCell id="tgJbi9paGbjR8tI-g3bn-15" value="OWERVIEW" style="shape=rhombus;perimeter=rhombusPerimeter;whiteSpace=wrap;html=1;align=center;" vertex="1" parent="1">
          <mxGeometry x="-580" y="-1670" width="120" height="60" as="geometry" />
        </mxCell>
        <mxCell id="tgJbi9paGbjR8tI-g3bn-16" value="HAS" style="shape=rhombus;perimeter=rhombusPerimeter;whiteSpace=wrap;html=1;align=center;" vertex="1" parent="1">
          <mxGeometry x="-110" y="-1900" width="120" height="60" as="geometry" />
        </mxCell>
        <mxCell id="tgJbi9paGbjR8tI-g3bn-17" value="" style="shape=link;html=1;rounded=0;exitX=0.5;exitY=0;exitDx=0;exitDy=0;entryX=0.5;entryY=1;entryDx=0;entryDy=0;" edge="1" parent="1" source="tgJbi9paGbjR8tI-g3bn-12" target="tgJbi9paGbjR8tI-g3bn-3">
          <mxGeometry relative="1" as="geometry">
            <mxPoint x="-50" y="-1580" as="sourcePoint" />
            <mxPoint x="110" y="-1580" as="targetPoint" />
          </mxGeometry>
        </mxCell>
        <mxCell id="tgJbi9paGbjR8tI-g3bn-18" value="N" style="resizable=0;html=1;whiteSpace=wrap;align=right;verticalAlign=bottom;" connectable="0" vertex="1" parent="tgJbi9paGbjR8tI-g3bn-17">
          <mxGeometry x="1" relative="1" as="geometry">
            <mxPoint x="90" y="60" as="offset" />
          </mxGeometry>
        </mxCell>
        <mxCell id="tgJbi9paGbjR8tI-g3bn-19" value="Baby_Id" style="ellipse;whiteSpace=wrap;html=1;align=center;fontStyle=4;" vertex="1" parent="1">
          <mxGeometry x="-160" y="-1970" width="100" height="40" as="geometry" />
        </mxCell>
        <mxCell id="tgJbi9paGbjR8tI-g3bn-20" value="Height" style="ellipse;whiteSpace=wrap;html=1;align=center;" vertex="1" parent="1">
          <mxGeometry x="-600" y="-2150" width="100" height="40" as="geometry" />
        </mxCell>
        <mxCell id="tgJbi9paGbjR8tI-g3bn-21" value="Birth_date" style="ellipse;whiteSpace=wrap;html=1;align=center;" vertex="1" parent="1">
          <mxGeometry x="-335" y="-2040" width="110" height="40" as="geometry" />
        </mxCell>
        <mxCell id="tgJbi9paGbjR8tI-g3bn-22" value="gender" style="ellipse;whiteSpace=wrap;html=1;align=center;" vertex="1" parent="1">
          <mxGeometry x="-620" y="-1930" width="100" height="40" as="geometry" />
        </mxCell>
        <mxCell id="tgJbi9paGbjR8tI-g3bn-23" value="Weight" style="ellipse;whiteSpace=wrap;html=1;align=center;" vertex="1" parent="1">
          <mxGeometry x="-480" y="-2200" width="100" height="40" as="geometry" />
        </mxCell>
        <mxCell id="tgJbi9paGbjR8tI-g3bn-24" value="Name" style="ellipse;whiteSpace=wrap;html=1;align=center;" vertex="1" parent="1">
          <mxGeometry x="-190" y="-2030" width="100" height="40" as="geometry" />
        </mxCell>
        <mxCell id="tgJbi9paGbjR8tI-g3bn-25" value="" style="endArrow=none;html=1;rounded=0;exitX=0.75;exitY=0;exitDx=0;exitDy=0;" edge="1" parent="1" source="tgJbi9paGbjR8tI-g3bn-3" target="tgJbi9paGbjR8tI-g3bn-24">
          <mxGeometry relative="1" as="geometry">
            <mxPoint x="-210" y="-1920" as="sourcePoint" />
            <mxPoint x="-77" y="-1930" as="targetPoint" />
          </mxGeometry>
        </mxCell>
        <mxCell id="tgJbi9paGbjR8tI-g3bn-26" value="" style="endArrow=none;html=1;rounded=0;exitX=1;exitY=0;exitDx=0;exitDy=0;entryX=0;entryY=1;entryDx=0;entryDy=0;" edge="1" parent="1" source="tgJbi9paGbjR8tI-g3bn-3" target="tgJbi9paGbjR8tI-g3bn-19">
          <mxGeometry relative="1" as="geometry">
            <mxPoint x="-220" y="-1840" as="sourcePoint" />
            <mxPoint x="-60" y="-1840" as="targetPoint" />
          </mxGeometry>
        </mxCell>
        <mxCell id="tgJbi9paGbjR8tI-g3bn-27" value="" style="endArrow=none;html=1;rounded=0;exitX=0.25;exitY=0;exitDx=0;exitDy=0;entryX=0.5;entryY=1;entryDx=0;entryDy=0;" edge="1" parent="1" source="tgJbi9paGbjR8tI-g3bn-3" target="tgJbi9paGbjR8tI-g3bn-81">
          <mxGeometry relative="1" as="geometry">
            <mxPoint x="-150" y="-1740" as="sourcePoint" />
            <mxPoint x="10" y="-1740" as="targetPoint" />
          </mxGeometry>
        </mxCell>
        <mxCell id="tgJbi9paGbjR8tI-g3bn-28" value="" style="endArrow=none;html=1;rounded=0;exitX=0.5;exitY=0;exitDx=0;exitDy=0;entryX=0.5;entryY=1;entryDx=0;entryDy=0;" edge="1" parent="1" source="tgJbi9paGbjR8tI-g3bn-3" target="tgJbi9paGbjR8tI-g3bn-21">
          <mxGeometry relative="1" as="geometry">
            <mxPoint x="-150" y="-1740" as="sourcePoint" />
            <mxPoint x="10" y="-1740" as="targetPoint" />
          </mxGeometry>
        </mxCell>
        <mxCell id="tgJbi9paGbjR8tI-g3bn-29" value="" style="endArrow=none;html=1;rounded=0;exitX=0;exitY=0.25;exitDx=0;exitDy=0;entryX=1;entryY=0.5;entryDx=0;entryDy=0;" edge="1" parent="1" source="tgJbi9paGbjR8tI-g3bn-3" target="tgJbi9paGbjR8tI-g3bn-22">
          <mxGeometry relative="1" as="geometry">
            <mxPoint x="-150" y="-1740" as="sourcePoint" />
            <mxPoint x="10" y="-1740" as="targetPoint" />
          </mxGeometry>
        </mxCell>
        <mxCell id="tgJbi9paGbjR8tI-g3bn-30" value="" style="shape=link;html=1;rounded=0;exitX=0.5;exitY=1;exitDx=0;exitDy=0;entryX=0.5;entryY=0;entryDx=0;entryDy=0;" edge="1" parent="1" source="tgJbi9paGbjR8tI-g3bn-7" target="tgJbi9paGbjR8tI-g3bn-1">
          <mxGeometry relative="1" as="geometry">
            <mxPoint x="-150" y="-1740" as="sourcePoint" />
            <mxPoint x="10" y="-1740" as="targetPoint" />
          </mxGeometry>
        </mxCell>
        <mxCell id="tgJbi9paGbjR8tI-g3bn-31" value="N" style="resizable=0;html=1;whiteSpace=wrap;align=right;verticalAlign=bottom;" connectable="0" vertex="1" parent="tgJbi9paGbjR8tI-g3bn-30">
          <mxGeometry x="1" relative="1" as="geometry">
            <mxPoint x="-10" y="-81" as="offset" />
          </mxGeometry>
        </mxCell>
        <mxCell id="tgJbi9paGbjR8tI-g3bn-32" value="" style="shape=link;html=1;rounded=0;exitX=0.5;exitY=0;exitDx=0;exitDy=0;entryX=0.5;entryY=1;entryDx=0;entryDy=0;" edge="1" parent="1" source="tgJbi9paGbjR8tI-g3bn-7" target="tgJbi9paGbjR8tI-g3bn-3">
          <mxGeometry relative="1" as="geometry">
            <mxPoint x="-150" y="-1740" as="sourcePoint" />
            <mxPoint x="10" y="-1740" as="targetPoint" />
          </mxGeometry>
        </mxCell>
        <mxCell id="tgJbi9paGbjR8tI-g3bn-33" value="N" style="resizable=0;html=1;whiteSpace=wrap;align=right;verticalAlign=bottom;" connectable="0" vertex="1" parent="tgJbi9paGbjR8tI-g3bn-32">
          <mxGeometry x="1" relative="1" as="geometry">
            <mxPoint x="-10" y="81" as="offset" />
          </mxGeometry>
        </mxCell>
        <mxCell id="tgJbi9paGbjR8tI-g3bn-34" value="" style="shape=link;html=1;rounded=0;exitX=0.5;exitY=0;exitDx=0;exitDy=0;entryX=0.5;entryY=1;entryDx=0;entryDy=0;" edge="1" parent="1" source="tgJbi9paGbjR8tI-g3bn-15" target="tgJbi9paGbjR8tI-g3bn-3">
          <mxGeometry relative="1" as="geometry">
            <mxPoint x="-160" y="-1750" as="sourcePoint" />
            <mxPoint x="10" y="-1740" as="targetPoint" />
          </mxGeometry>
        </mxCell>
        <mxCell id="tgJbi9paGbjR8tI-g3bn-35" value="N" style="resizable=0;html=1;whiteSpace=wrap;align=right;verticalAlign=bottom;" connectable="0" vertex="1" parent="tgJbi9paGbjR8tI-g3bn-34">
          <mxGeometry x="1" relative="1" as="geometry">
            <mxPoint x="-90" y="60" as="offset" />
          </mxGeometry>
        </mxCell>
        <mxCell id="tgJbi9paGbjR8tI-g3bn-36" value="" style="shape=link;html=1;rounded=0;exitX=0.5;exitY=1;exitDx=0;exitDy=0;entryX=0.5;entryY=0;entryDx=0;entryDy=0;" edge="1" parent="1" source="tgJbi9paGbjR8tI-g3bn-15" target="tgJbi9paGbjR8tI-g3bn-1">
          <mxGeometry relative="1" as="geometry">
            <mxPoint x="-150" y="-1740" as="sourcePoint" />
            <mxPoint x="10" y="-1740" as="targetPoint" />
          </mxGeometry>
        </mxCell>
        <mxCell id="tgJbi9paGbjR8tI-g3bn-37" value="N" style="resizable=0;html=1;whiteSpace=wrap;align=right;verticalAlign=bottom;" connectable="0" vertex="1" parent="tgJbi9paGbjR8tI-g3bn-36">
          <mxGeometry x="1" relative="1" as="geometry">
            <mxPoint x="-100" y="-80" as="offset" />
          </mxGeometry>
        </mxCell>
        <mxCell id="tgJbi9paGbjR8tI-g3bn-38" value="VACCINATION_REPORT" style="whiteSpace=wrap;html=1;align=center;" vertex="1" parent="1">
          <mxGeometry x="120" y="-1900" width="150" height="60" as="geometry" />
        </mxCell>
        <mxCell id="tgJbi9paGbjR8tI-g3bn-39" value="Vaccination_details" style="ellipse;whiteSpace=wrap;html=1;align=center;" vertex="1" parent="1">
          <mxGeometry x="-40" y="-1700" width="117" height="40" as="geometry" />
        </mxCell>
        <mxCell id="tgJbi9paGbjR8tI-g3bn-40" value="" style="shape=link;html=1;rounded=0;exitX=1;exitY=0.5;exitDx=0;exitDy=0;entryX=0;entryY=0.5;entryDx=0;entryDy=0;" edge="1" parent="1" source="tgJbi9paGbjR8tI-g3bn-3" target="tgJbi9paGbjR8tI-g3bn-16">
          <mxGeometry relative="1" as="geometry">
            <mxPoint x="-150" y="-1740" as="sourcePoint" />
            <mxPoint x="-120" y="-1870" as="targetPoint" />
          </mxGeometry>
        </mxCell>
        <mxCell id="tgJbi9paGbjR8tI-g3bn-41" value="1" style="resizable=0;html=1;whiteSpace=wrap;align=right;verticalAlign=bottom;" connectable="0" vertex="1" parent="tgJbi9paGbjR8tI-g3bn-40">
          <mxGeometry x="1" relative="1" as="geometry">
            <mxPoint x="-70" y="-10" as="offset" />
          </mxGeometry>
        </mxCell>
        <mxCell id="tgJbi9paGbjR8tI-g3bn-42" value="" style="endArrow=none;html=1;rounded=0;exitX=1;exitY=0.5;exitDx=0;exitDy=0;entryX=0;entryY=1;entryDx=0;entryDy=0;" edge="1" parent="1" source="tgJbi9paGbjR8tI-g3bn-12" target="tgJbi9paGbjR8tI-g3bn-39">
          <mxGeometry relative="1" as="geometry">
            <mxPoint x="-150" y="-1740" as="sourcePoint" />
            <mxPoint x="10" y="-1740" as="targetPoint" />
          </mxGeometry>
        </mxCell>
        <mxCell id="tgJbi9paGbjR8tI-g3bn-43" value="" style="shape=link;html=1;rounded=0;exitX=1;exitY=0.5;exitDx=0;exitDy=0;" edge="1" parent="1" source="tgJbi9paGbjR8tI-g3bn-16">
          <mxGeometry relative="1" as="geometry">
            <mxPoint x="-150" y="-1740" as="sourcePoint" />
            <mxPoint x="120" y="-1870" as="targetPoint" />
          </mxGeometry>
        </mxCell>
        <mxCell id="tgJbi9paGbjR8tI-g3bn-44" value="1" style="resizable=0;html=1;whiteSpace=wrap;align=right;verticalAlign=bottom;" connectable="0" vertex="1" parent="tgJbi9paGbjR8tI-g3bn-43">
          <mxGeometry x="1" relative="1" as="geometry">
            <mxPoint x="-31" y="-10" as="offset" />
          </mxGeometry>
        </mxCell>
        <mxCell id="tgJbi9paGbjR8tI-g3bn-45" value="Name" style="ellipse;whiteSpace=wrap;html=1;align=center;" vertex="1" parent="1">
          <mxGeometry x="-202" y="-1400" width="100" height="40" as="geometry" />
        </mxCell>
        <mxCell id="tgJbi9paGbjR8tI-g3bn-46" value="User_Id" style="ellipse;whiteSpace=wrap;html=1;align=center;fontStyle=4;" vertex="1" parent="1">
          <mxGeometry x="-170" y="-1520" width="100" height="40" as="geometry" />
        </mxCell>
        <mxCell id="tgJbi9paGbjR8tI-g3bn-47" value="Age" style="ellipse;whiteSpace=wrap;html=1;align=center;dashed=1;" vertex="1" parent="1">
          <mxGeometry x="-340" y="-2170" width="100" height="40" as="geometry" />
        </mxCell>
        <mxCell id="tgJbi9paGbjR8tI-g3bn-48" value="Gmail" style="ellipse;whiteSpace=wrap;html=1;align=center;" vertex="1" parent="1">
          <mxGeometry x="-150" y="-1460" width="100" height="40" as="geometry" />
        </mxCell>
        <mxCell id="tgJbi9paGbjR8tI-g3bn-49" value="Password" style="ellipse;whiteSpace=wrap;html=1;align=center;" vertex="1" parent="1">
          <mxGeometry x="-554" y="-1480" width="100" height="40" as="geometry" />
        </mxCell>
        <mxCell id="tgJbi9paGbjR8tI-g3bn-50" value="" style="endArrow=none;html=1;rounded=0;entryX=0.084;entryY=0.2;entryDx=0;entryDy=0;exitX=1;exitY=1;exitDx=0;exitDy=0;entryPerimeter=0;" edge="1" parent="1" source="tgJbi9paGbjR8tI-g3bn-1" target="tgJbi9paGbjR8tI-g3bn-45">
          <mxGeometry relative="1" as="geometry">
            <mxPoint x="-310" y="-1430" as="sourcePoint" />
            <mxPoint x="-150" y="-1430" as="targetPoint" />
          </mxGeometry>
        </mxCell>
        <mxCell id="tgJbi9paGbjR8tI-g3bn-51" value="" style="endArrow=none;html=1;rounded=0;entryX=0;entryY=0.5;entryDx=0;entryDy=0;exitX=1;exitY=0.5;exitDx=0;exitDy=0;" edge="1" parent="1" source="tgJbi9paGbjR8tI-g3bn-1" target="tgJbi9paGbjR8tI-g3bn-48">
          <mxGeometry relative="1" as="geometry">
            <mxPoint x="-310" y="-1430" as="sourcePoint" />
            <mxPoint x="-150" y="-1430" as="targetPoint" />
          </mxGeometry>
        </mxCell>
        <mxCell id="tgJbi9paGbjR8tI-g3bn-52" value="" style="endArrow=none;html=1;rounded=0;entryX=0;entryY=0.5;entryDx=0;entryDy=0;exitX=1;exitY=0.25;exitDx=0;exitDy=0;" edge="1" parent="1" source="tgJbi9paGbjR8tI-g3bn-1" target="tgJbi9paGbjR8tI-g3bn-46">
          <mxGeometry relative="1" as="geometry">
            <mxPoint x="-310" y="-1430" as="sourcePoint" />
            <mxPoint x="-150" y="-1430" as="targetPoint" />
          </mxGeometry>
        </mxCell>
        <mxCell id="tgJbi9paGbjR8tI-g3bn-53" value="" style="endArrow=none;html=1;rounded=0;exitX=1;exitY=0.5;exitDx=0;exitDy=0;entryX=0;entryY=0.5;entryDx=0;entryDy=0;" edge="1" parent="1" source="tgJbi9paGbjR8tI-g3bn-49" target="tgJbi9paGbjR8tI-g3bn-1">
          <mxGeometry relative="1" as="geometry">
            <mxPoint x="-310" y="-1430" as="sourcePoint" />
            <mxPoint x="-150" y="-1430" as="targetPoint" />
          </mxGeometry>
        </mxCell>
        <mxCell id="tgJbi9paGbjR8tI-g3bn-54" value="Doctor_Id" style="ellipse;whiteSpace=wrap;html=1;align=center;" vertex="1" parent="1">
          <mxGeometry x="-600" y="-1130" width="100" height="40" as="geometry" />
        </mxCell>
        <mxCell id="tgJbi9paGbjR8tI-g3bn-55" value="Regional_Office" style="ellipse;whiteSpace=wrap;html=1;align=center;" vertex="1" parent="1">
          <mxGeometry x="-307.95" y="-1120" width="100" height="40" as="geometry" />
        </mxCell>
        <mxCell id="tgJbi9paGbjR8tI-g3bn-56" value="" style="endArrow=none;html=1;rounded=0;entryX=0.5;entryY=1;entryDx=0;entryDy=0;exitX=0.5;exitY=0;exitDx=0;exitDy=0;" edge="1" parent="1" source="tgJbi9paGbjR8tI-g3bn-55" target="tgJbi9paGbjR8tI-g3bn-4">
          <mxGeometry relative="1" as="geometry">
            <mxPoint x="-370" y="-1130" as="sourcePoint" />
            <mxPoint x="-210" y="-1130" as="targetPoint" />
          </mxGeometry>
        </mxCell>
        <mxCell id="tgJbi9paGbjR8tI-g3bn-57" value="" style="endArrow=none;html=1;rounded=0;exitX=0.5;exitY=1;exitDx=0;exitDy=0;entryX=0.5;entryY=0;entryDx=0;entryDy=0;" edge="1" parent="1" source="tgJbi9paGbjR8tI-g3bn-2" target="tgJbi9paGbjR8tI-g3bn-54">
          <mxGeometry relative="1" as="geometry">
            <mxPoint x="-370" y="-1130" as="sourcePoint" />
            <mxPoint x="-210" y="-1130" as="targetPoint" />
          </mxGeometry>
        </mxCell>
        <mxCell id="tgJbi9paGbjR8tI-g3bn-58" value="Bby_Name" style="swimlane;fontStyle=0;childLayout=stackLayout;horizontal=1;startSize=20;horizontalStack=0;resizeParent=1;resizeParentMax=0;resizeLast=0;collapsible=1;marginBottom=0;align=center;fontSize=14;" vertex="1" parent="1">
          <mxGeometry x="230" y="-1790" width="200" height="140" as="geometry">
            <mxRectangle x="270" y="-1760" width="60" height="30" as="alternateBounds" />
          </mxGeometry>
        </mxCell>
        <mxCell id="tgJbi9paGbjR8tI-g3bn-59" value="Vaccine&amp;nbsp; &amp;nbsp; &amp;nbsp; &amp;nbsp; &amp;nbsp;Date&amp;nbsp; &amp;nbsp; &amp;nbsp; &amp;nbsp; &amp;nbsp;Vccined/not" style="text;strokeColor=none;fillColor=none;spacingLeft=4;spacingRight=4;overflow=hidden;rotatable=0;points=[[0,0.5],[1,0.5]];portConstraint=eastwest;fontSize=12;whiteSpace=wrap;html=1;" vertex="1" parent="tgJbi9paGbjR8tI-g3bn-58">
          <mxGeometry y="20" width="200" height="30" as="geometry" />
        </mxCell>
        <mxCell id="tgJbi9paGbjR8tI-g3bn-60" value="" style="endArrow=none;html=1;rounded=0;entryX=0.302;entryY=1.021;entryDx=0;entryDy=0;entryPerimeter=0;" edge="1" parent="tgJbi9paGbjR8tI-g3bn-58">
          <mxGeometry relative="1" as="geometry">
            <mxPoint x="120" y="20" as="sourcePoint" />
            <mxPoint x="120" y="141" as="targetPoint" />
          </mxGeometry>
        </mxCell>
        <mxCell id="tgJbi9paGbjR8tI-g3bn-61" value="" style="endArrow=none;html=1;rounded=0;exitX=0.007;exitY=0.994;exitDx=0;exitDy=0;exitPerimeter=0;entryX=1.001;entryY=0.994;entryDx=0;entryDy=0;entryPerimeter=0;" edge="1" parent="tgJbi9paGbjR8tI-g3bn-58" source="tgJbi9paGbjR8tI-g3bn-59" target="tgJbi9paGbjR8tI-g3bn-59">
          <mxGeometry relative="1" as="geometry">
            <mxPoint x="30" y="49" as="sourcePoint" />
            <mxPoint x="190" y="49" as="targetPoint" />
          </mxGeometry>
        </mxCell>
        <mxCell id="tgJbi9paGbjR8tI-g3bn-62" value="Vaccine 1" style="text;strokeColor=none;fillColor=none;spacingLeft=4;spacingRight=4;overflow=hidden;rotatable=0;points=[[0,0.5],[1,0.5]];portConstraint=eastwest;fontSize=12;whiteSpace=wrap;html=1;" vertex="1" parent="tgJbi9paGbjR8tI-g3bn-58">
          <mxGeometry y="50" width="200" height="30" as="geometry" />
        </mxCell>
        <mxCell id="tgJbi9paGbjR8tI-g3bn-63" value="Vaccine 2" style="text;strokeColor=none;fillColor=none;spacingLeft=4;spacingRight=4;overflow=hidden;rotatable=0;points=[[0,0.5],[1,0.5]];portConstraint=eastwest;fontSize=12;whiteSpace=wrap;html=1;" vertex="1" parent="tgJbi9paGbjR8tI-g3bn-58">
          <mxGeometry y="80" width="200" height="30" as="geometry" />
        </mxCell>
        <mxCell id="tgJbi9paGbjR8tI-g3bn-64" value="Vaccine 3" style="text;strokeColor=none;fillColor=none;spacingLeft=4;spacingRight=4;overflow=hidden;rotatable=0;points=[[0,0.5],[1,0.5]];portConstraint=eastwest;fontSize=12;whiteSpace=wrap;html=1;" vertex="1" parent="tgJbi9paGbjR8tI-g3bn-58">
          <mxGeometry y="110" width="200" height="30" as="geometry" />
        </mxCell>
        <mxCell id="tgJbi9paGbjR8tI-g3bn-65" value="" style="endArrow=none;html=1;rounded=0;entryX=0.302;entryY=1.021;entryDx=0;entryDy=0;entryPerimeter=0;" edge="1" parent="tgJbi9paGbjR8tI-g3bn-58" target="tgJbi9paGbjR8tI-g3bn-64">
          <mxGeometry relative="1" as="geometry">
            <mxPoint x="60" y="20" as="sourcePoint" />
            <mxPoint x="230" y="120" as="targetPoint" />
          </mxGeometry>
        </mxCell>
        <mxCell id="tgJbi9paGbjR8tI-g3bn-66" value="" style="shape=requiredInterface;html=1;verticalLabelPosition=bottom;sketch=0;direction=west;rotation=-35;" vertex="1" parent="1">
          <mxGeometry x="-414" y="-1290" width="20" height="20" as="geometry" />
        </mxCell>
        <mxCell id="tgJbi9paGbjR8tI-g3bn-67" value="" style="shape=requiredInterface;html=1;verticalLabelPosition=bottom;sketch=0;direction=west;rotation=-90;" vertex="1" parent="1">
          <mxGeometry x="-321" y="-1290" width="20" height="20" as="geometry" />
        </mxCell>
        <mxCell id="tgJbi9paGbjR8tI-g3bn-68" value="" style="shape=requiredInterface;html=1;verticalLabelPosition=bottom;sketch=0;direction=west;rotation=-145;" vertex="1" parent="1">
          <mxGeometry x="-240" y="-1292.41" width="20" height="22.41" as="geometry" />
        </mxCell>
        <mxCell id="tgJbi9paGbjR8tI-g3bn-69" value="" style="verticalLabelPosition=bottom;verticalAlign=top;html=1;shape=mxgraph.basic.rect;fillColor2=none;strokeWidth=1;size=1.7;indent=5;" vertex="1" parent="1">
          <mxGeometry x="387" y="-1730" width="10" height="10" as="geometry" />
        </mxCell>
        <mxCell id="tgJbi9paGbjR8tI-g3bn-70" value="" style="verticalLabelPosition=bottom;verticalAlign=top;html=1;shape=mxgraph.basic.rect;fillColor2=none;strokeWidth=1;size=1.7;indent=5;" vertex="1" parent="1">
          <mxGeometry x="387" y="-1671" width="10" height="10" as="geometry" />
        </mxCell>
        <mxCell id="tgJbi9paGbjR8tI-g3bn-71" value="" style="verticalLabelPosition=bottom;verticalAlign=top;html=1;shape=mxgraph.basic.rect;fillColor2=none;strokeWidth=1;size=1.7;indent=5;" vertex="1" parent="1">
          <mxGeometry x="388" y="-1700" width="10" height="10" as="geometry" />
        </mxCell>
        <mxCell id="tgJbi9paGbjR8tI-g3bn-72" value="" style="endArrow=none;html=1;rounded=0;exitX=1;exitY=1;exitDx=0;exitDy=0;" edge="1" parent="1" source="tgJbi9paGbjR8tI-g3bn-38" target="tgJbi9paGbjR8tI-g3bn-58">
          <mxGeometry relative="1" as="geometry">
            <mxPoint x="340" y="-1730" as="sourcePoint" />
            <mxPoint x="500" y="-1730" as="targetPoint" />
          </mxGeometry>
        </mxCell>
        <mxCell id="tgJbi9paGbjR8tI-g3bn-73" value="Give" style="shape=rhombus;perimeter=rhombusPerimeter;whiteSpace=wrap;html=1;align=center;" vertex="1" parent="1">
          <mxGeometry x="-479.1" y="-1040" width="120" height="60" as="geometry" />
        </mxCell>
        <mxCell id="tgJbi9paGbjR8tI-g3bn-74" value="" style="shape=link;html=1;rounded=0;exitX=0.5;exitY=0;exitDx=0;exitDy=0;entryX=0.5;entryY=1;entryDx=0;entryDy=0;" edge="1" parent="1" source="tgJbi9paGbjR8tI-g3bn-73" target="tgJbi9paGbjR8tI-g3bn-2">
          <mxGeometry relative="1" as="geometry">
            <mxPoint x="-410" y="-950" as="sourcePoint" />
            <mxPoint x="-510" y="-1080" as="targetPoint" />
          </mxGeometry>
        </mxCell>
        <mxCell id="tgJbi9paGbjR8tI-g3bn-75" value="1" style="resizable=0;html=1;whiteSpace=wrap;align=right;verticalAlign=bottom;" connectable="0" vertex="1" parent="tgJbi9paGbjR8tI-g3bn-74">
          <mxGeometry x="1" relative="1" as="geometry">
            <mxPoint x="41" y="47" as="offset" />
          </mxGeometry>
        </mxCell>
        <mxCell id="tgJbi9paGbjR8tI-g3bn-76" value="" style="shape=link;html=1;rounded=0;exitX=0.5;exitY=0;exitDx=0;exitDy=0;entryX=0.5;entryY=1;entryDx=0;entryDy=0;" edge="1" parent="1" source="tgJbi9paGbjR8tI-g3bn-73" target="tgJbi9paGbjR8tI-g3bn-4">
          <mxGeometry relative="1" as="geometry">
            <mxPoint x="-440" y="-920" as="sourcePoint" />
            <mxPoint x="-340" y="-1070" as="targetPoint" />
          </mxGeometry>
        </mxCell>
        <mxCell id="tgJbi9paGbjR8tI-g3bn-77" value="1" style="resizable=0;html=1;whiteSpace=wrap;align=right;verticalAlign=bottom;" connectable="0" vertex="1" parent="tgJbi9paGbjR8tI-g3bn-76">
          <mxGeometry x="1" relative="1" as="geometry">
            <mxPoint x="-43" y="47" as="offset" />
          </mxGeometry>
        </mxCell>
        <mxCell id="tgJbi9paGbjR8tI-g3bn-78" value="Medications &amp;amp; recommendations" style="whiteSpace=wrap;html=1;align=center;" vertex="1" parent="1">
          <mxGeometry x="-261" y="-1040" width="140" height="60" as="geometry" />
        </mxCell>
        <mxCell id="tgJbi9paGbjR8tI-g3bn-79" value="" style="endArrow=none;html=1;rounded=0;exitX=1;exitY=0.5;exitDx=0;exitDy=0;entryX=0;entryY=0.5;entryDx=0;entryDy=0;" edge="1" parent="1" source="tgJbi9paGbjR8tI-g3bn-73" target="tgJbi9paGbjR8tI-g3bn-78">
          <mxGeometry relative="1" as="geometry">
            <mxPoint x="-270" y="-950" as="sourcePoint" />
            <mxPoint x="-110" y="-950" as="targetPoint" />
          </mxGeometry>
        </mxCell>
        <mxCell id="tgJbi9paGbjR8tI-g3bn-80" value="N" style="resizable=0;html=1;whiteSpace=wrap;align=right;verticalAlign=bottom;" connectable="0" vertex="1" parent="tgJbi9paGbjR8tI-g3bn-79">
          <mxGeometry x="1" relative="1" as="geometry">
            <mxPoint x="-20" as="offset" />
          </mxGeometry>
        </mxCell>
        <mxCell id="tgJbi9paGbjR8tI-g3bn-81" value="Growth_Details" style="ellipse;whiteSpace=wrap;html=1;align=center;" vertex="1" parent="1">
          <mxGeometry x="-440" y="-2100" width="100" height="40" as="geometry" />
        </mxCell>
        <mxCell id="tgJbi9paGbjR8tI-g3bn-82" value="" style="endArrow=none;html=1;rounded=0;exitX=0.735;exitY=0.079;exitDx=0;exitDy=0;entryX=0;entryY=1;entryDx=0;entryDy=0;exitPerimeter=0;" edge="1" parent="1" source="tgJbi9paGbjR8tI-g3bn-81" target="tgJbi9paGbjR8tI-g3bn-47">
          <mxGeometry relative="1" as="geometry">
            <mxPoint x="-270" y="-1970" as="sourcePoint" />
            <mxPoint x="-110" y="-1970" as="targetPoint" />
          </mxGeometry>
        </mxCell>
        <mxCell id="tgJbi9paGbjR8tI-g3bn-83" value="" style="endArrow=none;html=1;rounded=0;exitX=0.333;exitY=0.06;exitDx=0;exitDy=0;entryX=0.5;entryY=1;entryDx=0;entryDy=0;exitPerimeter=0;" edge="1" parent="1" source="tgJbi9paGbjR8tI-g3bn-81" target="tgJbi9paGbjR8tI-g3bn-23">
          <mxGeometry relative="1" as="geometry">
            <mxPoint x="-280" y="-1970" as="sourcePoint" />
            <mxPoint x="-120" y="-1970" as="targetPoint" />
          </mxGeometry>
        </mxCell>
        <mxCell id="tgJbi9paGbjR8tI-g3bn-84" value="" style="endArrow=none;html=1;rounded=0;exitX=0;exitY=0.5;exitDx=0;exitDy=0;entryX=0.734;entryY=0.896;entryDx=0;entryDy=0;entryPerimeter=0;" edge="1" parent="1" source="tgJbi9paGbjR8tI-g3bn-81" target="tgJbi9paGbjR8tI-g3bn-20">
          <mxGeometry relative="1" as="geometry">
            <mxPoint x="-280" y="-1970" as="sourcePoint" />
            <mxPoint x="-120" y="-1970" as="targetPoint" />
          </mxGeometry>
        </mxCell>
        <mxCell id="tgJbi9paGbjR8tI-g3bn-85" value="User_Notifications" style="whiteSpace=wrap;html=1;align=center;" vertex="1" parent="1">
          <mxGeometry x="18" y="-2120" width="120" height="40" as="geometry" />
        </mxCell>
        <mxCell id="tgJbi9paGbjR8tI-g3bn-86" value="NOTICE" style="shape=rhombus;perimeter=rhombusPerimeter;whiteSpace=wrap;html=1;align=center;" vertex="1" parent="1">
          <mxGeometry x="-212" y="-2130" width="120" height="60" as="geometry" />
        </mxCell>
        <mxCell id="tgJbi9paGbjR8tI-g3bn-87" value="NOTICE" style="shape=rhombus;perimeter=rhombusPerimeter;whiteSpace=wrap;html=1;align=center;" vertex="1" parent="1">
          <mxGeometry x="135" y="-2030" width="120" height="60" as="geometry" />
        </mxCell>
        <mxCell id="tgJbi9paGbjR8tI-g3bn-88" value="" style="endArrow=none;html=1;rounded=0;exitX=1;exitY=0.5;exitDx=0;exitDy=0;entryX=0;entryY=0.5;entryDx=0;entryDy=0;" edge="1" parent="1" source="tgJbi9paGbjR8tI-g3bn-86" target="tgJbi9paGbjR8tI-g3bn-85">
          <mxGeometry relative="1" as="geometry">
            <mxPoint x="-70" y="-2110" as="sourcePoint" />
            <mxPoint x="110" y="-1890" as="targetPoint" />
          </mxGeometry>
        </mxCell>
        <mxCell id="tgJbi9paGbjR8tI-g3bn-89" value="1" style="resizable=0;html=1;whiteSpace=wrap;align=right;verticalAlign=bottom;" connectable="0" vertex="1" parent="tgJbi9paGbjR8tI-g3bn-88">
          <mxGeometry x="1" relative="1" as="geometry">
            <mxPoint x="-35" as="offset" />
          </mxGeometry>
        </mxCell>
        <mxCell id="tgJbi9paGbjR8tI-g3bn-90" value="" style="endArrow=none;html=1;rounded=0;exitX=1;exitY=0.5;exitDx=0;exitDy=0;entryX=0;entryY=0.5;entryDx=0;entryDy=0;" edge="1" parent="1" source="tgJbi9paGbjR8tI-g3bn-81" target="tgJbi9paGbjR8tI-g3bn-86">
          <mxGeometry relative="1" as="geometry">
            <mxPoint x="-342.95" y="-2070" as="sourcePoint" />
            <mxPoint x="-182.95" y="-2070" as="targetPoint" />
          </mxGeometry>
        </mxCell>
        <mxCell id="tgJbi9paGbjR8tI-g3bn-91" value="1" style="resizable=0;html=1;whiteSpace=wrap;align=right;verticalAlign=bottom;" connectable="0" vertex="1" parent="tgJbi9paGbjR8tI-g3bn-90">
          <mxGeometry x="1" relative="1" as="geometry" />
        </mxCell>
        <mxCell id="tgJbi9paGbjR8tI-g3bn-92" value="" style="endArrow=none;html=1;rounded=0;exitX=1;exitY=0.5;exitDx=0;exitDy=0;entryX=0.5;entryY=0;entryDx=0;entryDy=0;" edge="1" parent="1" source="tgJbi9paGbjR8tI-g3bn-85" target="tgJbi9paGbjR8tI-g3bn-87">
          <mxGeometry relative="1" as="geometry">
            <mxPoint x="-50" y="-1890" as="sourcePoint" />
            <mxPoint x="110" y="-1890" as="targetPoint" />
            <Array as="points">
              <mxPoint x="195" y="-2100" />
            </Array>
          </mxGeometry>
        </mxCell>
        <mxCell id="tgJbi9paGbjR8tI-g3bn-93" value="" style="endArrow=none;html=1;rounded=0;exitX=0.5;exitY=1;exitDx=0;exitDy=0;entryX=0.5;entryY=0;entryDx=0;entryDy=0;" edge="1" parent="1" source="tgJbi9paGbjR8tI-g3bn-87" target="tgJbi9paGbjR8tI-g3bn-38">
          <mxGeometry relative="1" as="geometry">
            <mxPoint x="-50" y="-1890" as="sourcePoint" />
            <mxPoint x="110" y="-1890" as="targetPoint" />
          </mxGeometry>
        </mxCell>
        <mxCell id="tgJbi9paGbjR8tI-g3bn-94" value="Birth_Defects" style="ellipse;whiteSpace=wrap;html=1;align=center;" vertex="1" parent="1">
          <mxGeometry x="-580" y="-2040" width="100" height="40" as="geometry" />
        </mxCell>
        <mxCell id="tgJbi9paGbjR8tI-g3bn-95" value="" style="endArrow=none;html=1;rounded=0;exitX=1;exitY=1;exitDx=0;exitDy=0;entryX=0.083;entryY=0;entryDx=0;entryDy=0;entryPerimeter=0;" edge="1" parent="1" source="tgJbi9paGbjR8tI-g3bn-94" target="tgJbi9paGbjR8tI-g3bn-3">
          <mxGeometry relative="1" as="geometry">
            <mxPoint x="-430" y="-1810" as="sourcePoint" />
            <mxPoint x="-370" y="-1900" as="targetPoint" />
          </mxGeometry>
        </mxCell>
      </root>
    </mxGraphModel>
  </diagram>
</mxfile>
